<svg xmlns="http://www.w3.org/2000/svg" width="1600" height="1000" viewBox="0 0 1600 1000">
  <defs><radialGradient id="ember"><stop stop-color="#FF7849" stop-opacity=".72"/><stop offset="1" stop-color="#FF7849" stop-opacity="0"/></radialGradient><linearGradient id="ground" x2="1" y2="1"><stop stop-color="#0D0C0B"/><stop offset="1" stop-color="#251C18"/></linearGradient></defs>
  <rect width="1600" height="1000" fill="url(#ground)"/><circle cx="1260" cy="300" r="380" fill="url(#ember)"/>
  <g fill="none" stroke="#FF9B73" stroke-opacity=".3" stroke-width="3"><path d="M1120 1000c-30-350 90-570 350-740"/><path d="M1260 780c110-100 200-220 230-360"/><path d="M1180 690c-150-60-230-170-250-330"/></g>
  <g fill="#FF7849" fill-opacity=".22"><ellipse cx="1390" cy="335" rx="160" ry="55" transform="rotate(-32 1390 335)"/><ellipse cx="1090" cy="410" rx="140" ry="48" transform="rotate(38 1090 410)"/><ellipse cx="1325" cy="590" rx="150" ry="52" transform="rotate(-18 1325 590)"/></g>
  <g fill="#F5EDE3" fill-opacity=".4"><circle cx="270" cy="220" r="2"/><circle cx="590" cy="110" r="3"/><circle cx="820" cy="315" r="2"/><circle cx="425" cy="620" r="2"/></g>
</svg>
