<svg xmlns="http://www.w3.org/2000/svg" width="1200" height="750" viewBox="0 0 1200 750">
  <defs><pattern id="grid" width="28" height="28" patternUnits="userSpaceOnUse"><path d="M28 0H0V28" fill="none" stroke="#2455D6" stroke-opacity=".08"/></pattern></defs><rect width="1200" height="750" rx="28" fill="#F3EEDC"/><rect width="1200" height="750" rx="28" fill="url(#grid)"/>
  <path d="M900 40v120h180v130h120M1020 290v190H900v270" fill="none" stroke="#2455D6" stroke-opacity=".3" stroke-width="3"/><circle cx="1020" cy="290" r="8" fill="#EF5C3B"/>
  <rect x="46" y="42" width="1108" height="666" rx="22" fill="#FFFDF5" fill-opacity=".8" stroke="#2455D6" stroke-opacity=".28"/><rect x="46" y="42" width="250" height="666" rx="22" fill="#E9E2CD" fill-opacity=".95"/>
  <rect x="76" y="73" width="15" height="15" fill="#2455D6"/><text x="105" y="89" fill="#242621" font-family="serif" font-size="21">PAPER CIRCUIT</text><g fill="#8A8678"><rect x="78" y="145" width="142" height="10" rx="5"/><rect x="78" y="185" width="176" height="10" rx="5"/><rect x="78" y="225" width="120" height="10" rx="5"/></g>
  <text x="354" y="125" fill="#2455D6" font-family="monospace" font-size="15">SPECIFICATION / 01</text><text x="354" y="183" fill="#242621" font-family="serif" font-size="43">Draw the system before wiring it.</text>
  <rect x="354" y="236" width="715" height="250" rx="8" fill="#FFFDF5" fill-opacity=".86" stroke="#2455D6" stroke-opacity=".24"/><g fill="#6D6D63"><rect x="390" y="276" width="540" height="12" rx="2"/><rect x="390" y="310" width="610" height="12" rx="2"/><rect x="390" y="344" width="470" height="12" rx="2"/></g><rect x="390" y="405" width="174" height="42" rx="5" fill="#2455D6"/><text x="420" y="432" fill="#FFFDF5" font-family="monospace" font-size="15">OPEN BLUEPRINT</text>
  <rect x="354" y="548" width="715" height="96" rx="8" fill="#FFFDF5" stroke="#2455D6" stroke-opacity=".3"/><text x="390" y="604" fill="#787469" font-family="monospace" font-size="17">Ask Codex to build, explain, or repair...</text>
</svg>
