<svg xmlns="http://www.w3.org/2000/svg" width="1200" height="750" viewBox="0 0 1200 750">
  <defs><linearGradient id="g" x2="1" y2="1"><stop stop-color="#100F0E"/><stop offset="1" stop-color="#4A261D"/></linearGradient><radialGradient id="r"><stop stop-color="#FF7849" stop-opacity=".45"/><stop offset="1" stop-color="#FF7849" stop-opacity="0"/></radialGradient></defs>
  <rect width="1200" height="750" rx="28" fill="url(#g)"/><circle cx="1030" cy="170" r="300" fill="url(#r)"/><path d="M1020 750c-25-250 50-420 180-540M960 540c-80-55-120-125-130-230" fill="none" stroke="#FF9B73" stroke-opacity=".34" stroke-width="3"/>
  <rect x="46" y="42" width="1108" height="666" rx="22" fill="#100F0E" fill-opacity=".78" stroke="#FF7849" stroke-opacity=".28"/><rect x="46" y="42" width="250" height="666" rx="22" fill="#201D1A" fill-opacity=".94"/>
  <circle cx="82" cy="82" r="7" fill="#FF7849"/><text x="104" y="89" fill="#F5EDE3" font-family="serif" font-size="21">OBSIDIAN BLOOM</text><g fill="#8E7D72"><rect x="78" y="145" width="142" height="10" rx="5"/><rect x="78" y="185" width="176" height="10" rx="5"/><rect x="78" y="225" width="120" height="10" rx="5"/></g>
  <text x="354" y="125" fill="#FF9B73" font-family="monospace" font-size="15">WORKTREE / FOCUS</text><text x="354" y="183" fill="#F5EDE3" font-family="serif" font-size="43">Make the interface feel alive.</text>
  <rect x="354" y="236" width="715" height="250" rx="18" fill="#201D1A" fill-opacity=".8" stroke="#FF7849" stroke-opacity=".22"/><g fill="#CBB9AA"><rect x="390" y="276" width="540" height="12" rx="6"/><rect x="390" y="310" width="610" height="12" rx="6"/><rect x="390" y="344" width="470" height="12" rx="6"/></g><rect x="390" y="405" width="160" height="42" rx="21" fill="#FF7849"/><text x="421" y="432" fill="#100F0E" font-family="monospace" font-size="15">APPLY THEME</text>
  <rect x="354" y="548" width="715" height="96" rx="18" fill="#100F0E" stroke="#FF7849" stroke-opacity=".32"/><text x="390" y="604" fill="#9E8B7D" font-family="monospace" font-size="17">Ask Codex to build, explain, or repair...</text>
</svg>
